<?xml version="1.0" standalone="no"?>
<!DOCTYPE svg PUBLIC "-//W3C//DTD SVG 1.1//EN" "http://www.w3.org/Graphics/SVG/1.1/DTD/svg11.dtd">
<svg width="99mm" height="64mm" viewBox="-49 -45 99 64" xmlns="http://www.w3.org/2000/svg" version="1.1">
<title>OpenSCAD Model</title>
<path d="
M 0.75,-45 L -0.75,-45 L -0.75,-35 L 0.75,-35 z
M 10.6495,-41.9455 L 9.35048,-42.6955 L 4.35048,-34.0352 L 5.64951,-33.2852 z
M -4.35048,-34.0352 L -9.35048,-42.6955 L -10.6495,-41.9455 L -5.64951,-33.2852 z
M 17.6955,-34.3505 L 16.9455,-35.6495 L 8.28525,-30.6495 L 9.03525,-29.3505 z
M -8.28525,-30.6495 L -16.9455,-35.6495 L -17.6955,-34.3505 L -9.03525,-29.3505 z
M 3.20854,-15.391 L 3.37943,-15.8679 L 3.58829,-16.3495 L 3.83513,-16.836 L 4.11993,-17.3272 L 4.39996,-17.778
 L 4.67053,-18.1814 L 4.93161,-18.5374 L 5.18324,-18.8459 L 5.89998,-19.7903 L 6.41734,-20.8391 L 6.73535,-21.9924
 L 6.854,-23.25 L 6.70213,-24.5978 L 6.32242,-25.8317 L 5.71486,-26.9517 L 4.87944,-27.9578 L 3.8873,-28.7764
 L 2.77174,-29.372 L 1.53278,-29.7446 L 0.170395,-29.8941 L -1.23938,-29.7256 L -2.50677,-29.3341 L -3.63176,-28.7195
 L -4.61436,-27.8819 L -5.43082,-26.8663 L -6.01944,-25.7557 L -6.38023,-24.5503 L -6.51318,-23.25 L -6.39444,-22.0066
 L -6.07628,-20.8581 L -5.5587,-19.8045 L -4.84172,-18.8459 L -4.59009,-18.5374 L -4.32893,-18.1814 L -4.05829,-17.778
 L -3.77814,-17.3272 L -3.49326,-16.836 L -3.24635,-16.3495 L -3.03741,-15.8679 L -2.86647,-15.391 L -2.86647,-15.3529
 L 3.20854,-15.3529 z
M -1.61346,-17.1379 L -1.82715,-17.5508 L -2.05034,-17.9541 L -2.28299,-18.348 L -2.52515,-18.7323 L -2.76965,-19.0978
 L -3.0094,-19.4347 L -3.2444,-19.7431 L -3.47462,-20.023 L -3.99223,-20.7514 L -4.36737,-21.532 L -4.60004,-22.3648
 L -4.69025,-23.2498 L -4.59532,-24.1396 L -4.34851,-24.9866 L -3.94978,-25.791 L -3.39917,-26.5526 L -2.70851,-27.1885
 L -1.88968,-27.6535 L -0.942688,-27.9478 L 0.132462,-28.0712 L 1.13168,-27.9691 L 2.0407,-27.701 L 2.8595,-27.2668
 L 3.58807,-26.6665 L 4.20517,-25.9405 L 4.65138,-25.129 L 4.92673,-24.2321 L 5.0312,-23.2498 L 4.94098,-22.3648
 L 4.70839,-21.532 L 4.33345,-20.7514 L 3.81615,-20.023 L 3.58592,-19.7431 L 3.35095,-19.4347 L 3.11125,-19.0978
 L 2.86681,-18.7323 L 2.62473,-18.348 L 2.39217,-17.9541 L 2.1691,-17.5508 L 1.95554,-17.1379 z
M -2.61487,-23.2623 L -2.42973,-23.381 L -2.31107,-23.5661 L -2.25887,-23.8177 L -2.21136,-24.1833 L -2.10693,-24.5204
 L -1.94557,-24.829 L -1.72728,-25.1092 L -1.44731,-25.3276 L -1.13887,-25.489 L -0.801926,-25.5934 L -0.436478,-25.6409
 L -0.185013,-25.6931 L 1.52588e-05,-25.8118 L 0.118637,-25.9969 L 0.170822,-26.2485 L 0.118622,-26.5001 L 0,-26.6852
 L -0.185089,-26.8039 L -0.43663,-26.8561 L -1.05598,-26.7873 L -1.62312,-26.6187 L -2.13805,-26.3505 L -2.60074,-25.9825
 L -2.9686,-25.5197 L -3.23677,-25.0046 L -3.40526,-24.4373 L -3.47406,-23.8177 L -3.42186,-23.5661 L -3.30319,-23.381
 L -3.11806,-23.2623 L -2.86647,-23.2101 z
M 1.63757,-10.4999 L 1.89859,-10.6044 L 2.13115,-10.7658 L 2.33522,-10.9842 L 3.01855,-11.9717 L 3.08745,-12.1284
 L 3.14207,-12.2945 L 3.18243,-12.4701 L 3.20854,-12.6552 L 3.20854,-14.1363 L -2.86647,-14.1363 L -2.86647,-12.6551
 L -2.8546,-12.47 L -2.819,-12.2944 L -2.75967,-12.1283 L -2.67662,-11.9716 L -1.99315,-10.9842 L -1.78906,-10.7658
 L -1.55652,-10.6044 L -1.2955,-10.4999 L -1.006,-10.4525 L 1.34808,-10.4525 z
M -44.0109,5.71448 L -43.2115,5.50983 L -42.4902,5.16872 L -41.8471,4.69118 L -41.3184,4.08963 L -40.9408,3.37665
 L -40.7143,2.5522 L -40.6388,1.6163 L -40.7112,0.721069 L -40.9283,-0.0814362 L -41.2903,-0.791275 L -41.797,-1.4084
 L -42.4142,-1.90788 L -43.1074,-2.26466 L -43.8766,-2.47873 L -44.7219,-2.55008 L -45.2458,-2.51888 L -45.751,-2.42528
 L -46.2374,-2.26929 L -46.705,-2.05089 L -46.705,-0.552444 L -46.304,-0.814896 L -45.8676,-1.00235 L -45.3957,-1.11482
 L -44.8885,-1.15233 L -44.3015,-1.10594 L -43.774,-0.966766 L -43.3058,-0.734833 L -42.8969,-0.410126 L -42.5652,-0.00514221
 L -42.3282,0.467575 L -42.1861,1.00806 L -42.1387,1.6163 L -42.1824,2.25165 L -42.3136,2.80673 L -42.5324,3.28156
 L -42.8386,3.6761 L -43.2219,3.98622 L -43.6719,4.20773 L -44.1885,4.34064 L -44.7718,4.38495 L -45.3317,4.33961
 L -45.828,4.20363 L -46.2609,3.97697 L -46.6301,3.65967 L -46.9254,3.26003 L -47.1363,2.78642 L -47.2628,2.23883
 L -47.305,1.61726 L -47.305,-6.05217 L -48.8049,-6.05217 L -48.8049,1.61546 L -48.7372,2.5177 L -48.5341,3.32408
 L -48.1956,4.03462 L -47.7216,4.64931 L -47.1384,5.14517 L -46.4717,5.49936 L -45.7218,5.71187 L -44.8885,5.7827
 z
M -21.8533,4.21599 L -22.0751,4.21286 L -22.274,4.20351 L -22.45,4.1879 L -22.6031,4.16606 L -22.7458,4.13428
 L -22.8906,4.08893 L -23.0375,4.03004 L -23.1865,3.95763 L -23.3266,3.86488 L -23.4469,3.74507 L -23.5474,3.59819
 L -23.6282,3.42422 L -23.6901,3.22261 L -23.7344,2.99289 L -23.7609,2.73505 L -23.7698,2.4491 L -23.7698,-6.05217
 L -25.2697,-6.05217 L -25.2697,2.4473 L -25.2212,3.25035 L -25.0759,3.92633 L -24.8337,4.47525 L -24.4947,4.89711
 L -24.039,5.21063 L -23.4469,5.43459 L -22.7183,5.56895 L -21.8533,5.61374 z
M -1.23291,4.14687 L -2.51619,4.14687 L -3.38751,4.07031 L -4.15155,3.84065 L -4.80832,3.45789 L -5.35779,2.92203
 L -5.79367,2.26637 L -6.10977,1.52429 L -6.30608,0.695755 L -6.3826,-0.219208 L -6.30608,-1.13419 L -6.10977,-1.96271
 L -5.79367,-2.7048 L -5.35779,-3.36044 L -4.80832,-3.89632 L -4.15155,-4.27907 L -3.38751,-4.50873 L -2.51619,-4.58528
 L -1.23291,-4.58528 L -1.23291,-6.05217 L -2.31627,-6.05217 L -3.58543,-5.95685 L -4.70982,-5.67093 L -5.68945,-5.19437
 L -6.52431,-4.52721 L -7.19247,-3.68614 L -7.67212,-2.68779 L -7.96323,-1.53214 L -8.06583,-0.219208 L -7.96323,1.09372
 L -7.67212,2.24939 L -7.19247,3.24779 L -6.52431,4.0889 L -5.68945,4.75603 L -4.70982,5.23253 L -3.58543,5.51843
 L -2.31627,5.61374 L -1.23291,5.61374 z
M -19.3649,-3.80374 L -19.1836,-3.85529 L -19.0316,-3.94121 L -18.9087,-4.06148 L -18.8139,-4.20264 L -18.7462,-4.35107
 L -18.7055,-4.50677 L -18.692,-4.66977 L -18.7055,-4.83273 L -18.7462,-4.98842 L -18.8139,-5.13681 L -18.9087,-5.27792
 L -19.0316,-5.39825 L -19.1836,-5.48421 L -19.3649,-5.53577 L -19.5753,-5.55296 L -19.7857,-5.53577 L -19.9669,-5.48421
 L -20.119,-5.39825 L -20.2419,-5.27792 L -20.3367,-5.13681 L -20.4043,-4.98842 L -20.4449,-4.83273 L -20.4585,-4.66977
 L -20.4449,-4.50626 L -20.4043,-4.349 L -20.3367,-4.19798 L -20.2419,-4.05321 L -20.119,-3.93655 L -19.9669,-3.85323
 L -19.7857,-3.80322 L -19.5753,-3.78656 z
M 26.9166,4.21599 L 26.6849,4.21286 L 26.4729,4.20348 L 26.2807,4.18784 L 26.1083,4.16594 L 25.9432,4.13414
 L 25.7729,4.08878 L 25.5974,4.02986 L 25.4167,3.95738 L 25.2444,3.864 L 25.0938,3.74246 L 24.9652,3.59279
 L 24.8584,3.41498 L 24.7745,3.21053 L 24.7146,2.98103 L 24.6787,2.7265 L 24.6667,2.44695 L 24.6667,-0.991043
 L 26.9166,-0.991043 L 26.9166,-2.38881 L 24.6667,-2.38881 L 24.6667,-3.97089 L 21.6836,-0.991043 L 23.1668,-0.991043
 L 23.1668,2.44478 L 23.2241,3.23494 L 23.396,3.90419 L 23.6824,4.45253 L 24.0834,4.87994 L 24.6042,5.20097
 L 25.25,5.4303 L 26.0208,5.56789 L 26.9166,5.61374 z
M -34.447,5.72415 L -33.7419,5.54852 L -33.0888,5.2558 L -32.4878,4.84598 L -33.4877,3.8627 L -33.845,4.09119
 L -34.2501,4.25438 L -34.7032,4.35229 L -35.2042,4.38495 L -35.7599,4.33704 L -36.2604,4.19333 L -36.7058,3.95383
 L -37.0959,3.6185 L -37.413,3.20607 L -37.6396,2.73534 L -37.7755,2.20628 L -37.8208,1.61894 L -37.7786,1.05656
 L -37.6521,0.535858 L -37.4411,0.0567932 L -37.1458,-0.3806 L -36.7765,-0.745117 L -36.3438,-1.00548 L -35.8474,-1.1617
 L -35.2876,-1.21376 L -35.0011,-1.19765 L -34.7418,-1.14932 L -34.5095,-1.06877 L -34.3043,-0.956009 L -34.1366,-0.811005
 L -34.0169,-0.633774 L -33.945,-0.424301 L -33.921,-0.182602 L -33.9481,0.187973 L -34.0294,0.501389 L -34.1648,0.757614
 L -34.3544,0.956665 L -34.6137,1.10582 L -34.9584,1.21236 L -35.3886,1.27628 L -35.9042,1.29758 L -36.7042,1.29758
 L -36.7042,2.58014 L -36.0209,2.58014 L -34.4241,2.4063 L -33.2836,1.88474 L -32.5992,1.01549 L -32.3711,-0.201447
 L -32.5482,-1.18523 L -33.0794,-1.9046 L -33.9647,-2.35956 L -35.2042,-2.55008 L -36.1198,-2.50323 L -36.9332,-2.29596
 L -37.6447,-1.92825 L -38.254,-1.40012 L -38.7425,-0.744965 L -39.0914,0.00392151 L -39.3008,0.846573 L -39.3706,1.78299
 L -39.2998,2.62563 L -39.0873,3.38702 L -38.7332,4.06718 L -38.2374,4.66611 L -37.6229,5.15462 L -36.9125,5.50356
 L -36.1063,5.71292 L -35.2042,5.7827 z
M 32.6191,5.76239 L 33.0305,5.70146 L 33.4273,5.59991 L 33.8096,5.45775 L 34.1721,5.28015 L 34.5096,5.07236
 L 34.8221,4.83435 L 35.1095,4.56615 L 35.3694,4.27084 L 35.5991,3.9516 L 35.7985,3.60838 L 35.9678,3.24123
 L 36.1027,2.85532 L 36.1991,2.45586 L 36.2569,2.04285 L 36.2762,1.6163 L 36.2564,1.18976 L 36.197,0.776749
 L 36.098,0.377289 L 35.9595,-0.00860596 L 35.786,-0.375763 L 35.5824,-0.718979 L 35.3485,-1.03822 L 35.0845,-1.33353
 L 34.7939,-1.60173 L 34.4804,-1.83974 L 34.144,-2.04753 L 33.7846,-2.22513 L 33.407,-2.36729 L 33.0159,-2.46884
 L 32.6113,-2.52977 L 32.1931,-2.55008 L 31.3546,-2.47404 L 30.589,-2.24594 L 29.8963,-1.86577 L 29.2766,-1.33353
 L 28.7662,-0.705414 L 28.4017,-0.00440979 L 28.183,0.769485 L 28.11,1.6163 L 28.1293,2.04285 L 28.1871,2.45586
 L 28.2835,2.85532 L 28.4183,3.24123 L 28.5876,3.60838 L 28.787,3.9516 L 29.0167,4.27084 L 29.2766,4.56615
 L 29.5635,4.83435 L 29.8744,5.07236 L 30.2093,5.28015 L 30.5681,5.45775 L 30.9478,5.59991 L 31.3452,5.70146
 L 31.7603,5.76239 L 32.1931,5.7827 z
M 31.6384,4.33699 L 31.1411,4.19315 L 30.701,3.95341 L 30.3182,3.61778 L 30.0083,3.20496 L 29.787,2.73378
 L 29.6542,2.20422 L 29.6099,1.6163 L 29.6542,1.0284 L 29.787,0.498856 L 30.0083,0.02771 L 30.3182,-0.38504
 L 30.701,-0.720734 L 31.1411,-0.960495 L 31.6384,-1.10437 L 32.1931,-1.15233 L 32.7545,-1.10385 L 33.2555,-0.958435
 L 33.6961,-0.716064 L 34.0763,-0.376755 L 34.3826,0.03862 L 34.6013,0.509277 L 34.7325,1.03517 L 34.7763,1.6163
 L 34.7325,2.19743 L 34.6013,2.72333 L 34.3826,3.19398 L 34.0763,3.60938 L 33.6961,3.94868 L 33.2555,4.19106
 L 32.7545,4.33647 L 32.1931,4.38495 z
M 10.7843,5.72415 L 11.4895,5.54852 L 12.1425,5.2558 L 12.7436,4.84598 L 11.7436,3.8627 L 11.3863,4.09119
 L 10.9812,4.25438 L 10.5281,4.35229 L 10.0271,4.38495 L 9.47139,4.33704 L 8.97087,4.19333 L 8.52556,3.95383
 L 8.13544,3.6185 L 7.81828,3.20607 L 7.59175,2.73534 L 7.45583,2.20628 L 7.41052,1.61894 L 7.4527,1.05656
 L 7.57927,0.535858 L 7.79021,0.0567932 L 8.08551,-0.3806 L 8.45477,-0.745117 L 8.88756,-1.00548 L 9.38388,-1.1617
 L 9.94371,-1.21376 L 10.2302,-1.19765 L 10.4895,-1.14932 L 10.7218,-1.06877 L 10.927,-0.956009 L 11.0947,-0.811005
 L 11.2145,-0.633774 L 11.2863,-0.424301 L 11.3103,-0.182602 L 11.2832,0.187973 L 11.202,0.501389 L 11.0665,0.757614
 L 10.877,0.956665 L 10.6176,1.10582 L 10.2729,1.21236 L 9.84274,1.27628 L 9.32715,1.29758 L 8.52711,1.29758
 L 8.52711,2.58014 L 9.21039,2.58014 L 10.8072,2.4063 L 11.9477,1.88474 L 12.6321,1.01549 L 12.8602,-0.201447
 L 12.6831,-1.18523 L 12.1519,-1.9046 L 11.2666,-2.35956 L 10.0271,-2.55008 L 9.11156,-2.50323 L 8.29807,-2.29596
 L 7.58665,-1.92825 L 6.97731,-1.40012 L 6.4888,-0.744965 L 6.13986,0.00392151 L 5.9305,0.846573 L 5.86072,1.78299
 L 5.93153,2.62563 L 6.14401,3.38702 L 6.49812,4.06718 L 6.99388,4.66611 L 7.60843,5.15462 L 8.31883,5.50356
 L 9.12505,5.71292 L 10.0271,5.7827 z
M -29.6847,1.06046 L -29.6649,0.510025 L -29.6055,0.0596924 L -29.5065,-0.290527 L -29.368,-0.54068 L -29.2722,-0.6418
 L -29.1681,-0.728333 L -29.0556,-0.800262 L -28.9348,-0.857605 L -28.8139,-0.902435 L -28.7014,-0.936829 L -28.5973,-0.960815
 L -28.5015,-0.974365 L -28.4004,-0.981659 L -28.2806,-0.986877 L -28.142,-0.990005 L -27.9847,-0.991043 L -26.2182,-0.991043
 L -26.2182,-2.38881 L -27.6847,-2.38881 L -27.9926,-2.38672 L -28.266,-2.38046 L -28.5051,-2.37004 L -28.7098,-2.35544
 L -28.905,-2.32939 L -29.116,-2.28458 L -29.3425,-2.22102 L -29.5847,-2.13872 L -29.8253,-2.03557 L -30.0471,-1.90948
 L -30.2503,-1.76047 L -30.4347,-1.58852 L -30.7481,-1.14777 L -30.9721,-0.559036 L -31.1064,0.177628 L -31.1512,1.06226
 L -31.1512,5.61374 L -29.6847,5.61374 z
M 47.5898,5.47412 L 48.548,5.05524 L 49.123,4.3571 L 49.3146,3.3797 L 49.3104,3.22078 L 49.2979,3.06084
 L 49.2771,2.89984 L 49.2479,2.73782 L 49.2036,2.57423 L 49.1375,2.40857 L 49.0495,2.24081 L 48.9396,2.07098
 L 48.8058,1.90897 L 48.6459,1.76465 L 48.46,1.63806 L 48.248,1.52917 L 47.9928,1.42287 L 47.6772,1.30406
 L 47.3012,1.17278 L 46.8648,1.02902 L 46.4487,0.895111 L 46.1336,0.793518 L 45.9196,0.724243 L 45.8065,0.687256
 L 45.7378,0.662216 L 45.6566,0.62883 L 45.5629,0.587097 L 45.4566,0.537018 L 45.3514,0.483246 L 45.2608,0.430527
 L 45.1847,0.378845 L 45.1232,0.328217 L 45.0706,0.274475 L 45.0212,0.213409 L 44.9748,0.14505 L 44.9316,0.0693817
 L 44.8952,-0.0125275 L 44.8692,-0.0996857 L 44.8535,-0.192047 L 44.8483,-0.289642 L 44.8702,-0.447235 L 44.9358,-0.586044
 L 45.0452,-0.70607 L 45.1982,-0.807327 L 45.3816,-0.887695 L 45.5816,-0.945114 L 45.7982,-0.979553 L 46.0315,-0.991043
 L 48.9814,-0.991043 L 48.9814,-2.38881 L 46.0315,-2.38881 L 45.4941,-2.35492 L 44.9982,-2.25327 L 44.5441,-2.08383
 L 44.1316,-1.84665 L 43.7889,-1.5459 L 43.5441,-1.18571 L 43.3973,-0.766083 L 43.3483,-0.287003 L 43.377,0.0971527
 L 43.4629,0.449005 L 43.6061,0.768555 L 43.8066,1.05579 L 44.0483,1.30809 L 44.315,1.52289 L 44.6066,1.70013
 L 44.9232,1.83986 L 45.2524,1.95712 L 45.5815,2.06708 L 45.9107,2.16975 L 46.2399,2.26514 L 46.5565,2.36203
 L 46.8482,2.46935 L 47.1148,2.5871 L 47.3564,2.71526 L 47.5569,2.85698 L 47.7002,3.01538 L 47.7861,3.19046
 L 47.8147,3.38222 L 47.7168,3.74699 L 47.4231,4.00754 L 46.9336,4.16388 L 46.2482,4.21599 L 43.365,4.21599
 L 43.365,5.61374 L 46.2482,5.61374 z
M 39.0167,1.06046 L 39.0365,0.510025 L 39.0959,0.0596924 L 39.1949,-0.290527 L 39.3334,-0.54068 L 39.4292,-0.6418
 L 39.5333,-0.728333 L 39.6458,-0.800262 L 39.7666,-0.857605 L 39.8875,-0.902435 L 40,-0.936829 L 40.1041,-0.960815
 L 40.1999,-0.974365 L 40.301,-0.981659 L 40.4208,-0.986877 L 40.5593,-0.990005 L 40.7166,-0.991043 L 42.4832,-0.991043
 L 42.4832,-2.38881 L 41.0166,-2.38881 L 40.7088,-2.38672 L 40.4354,-2.38046 L 40.1963,-2.37004 L 39.9916,-2.35544
 L 39.7963,-2.32939 L 39.5854,-2.28458 L 39.3589,-2.22102 L 39.1167,-2.13872 L 38.8761,-2.03557 L 38.6542,-1.90948
 L 38.4511,-1.76047 L 38.2667,-1.58852 L 37.9532,-1.14777 L 37.7293,-0.559036 L 37.595,0.177628 L 37.5502,1.06226
 L 37.5502,5.61374 L 39.0167,5.61374 z
M 20.8797,0.712219 L 20.8255,0.0057373 L 20.663,-0.61319 L 20.3922,-1.14462 L 20.013,-1.58852 L 19.5329,-1.93864
 L 18.9589,-2.18874 L 18.2913,-2.33879 L 17.5299,-2.38881 L 14.7801,-2.38881 L 14.7801,-0.991043 L 17.4465,-0.991043
 L 18.3069,-0.864838 L 18.9214,-0.486206 L 19.2901,0.144836 L 19.4131,1.02831 L 19.4131,4.21599 L 17.2132,4.21599
 L 16.4987,4.14708 L 15.9883,3.94034 L 15.6821,3.59579 L 15.58,3.11342 L 15.6071,2.84563 L 15.6883,2.6102
 L 15.8237,2.40715 L 16.0133,2.23647 L 16.2519,2.10123 L 16.5341,2.00462 L 16.8601,1.94666 L 17.2299,1.92734
 L 17.6705,1.95758 L 18.0757,2.04831 L 18.4454,2.19951 L 18.7798,2.41118 L 18.7798,0.913589 L 18.3611,0.79599
 L 17.9548,0.711975 L 17.5611,0.661575 L 17.1799,0.644775 L 16.5414,0.684387 L 15.9591,0.803177 L 15.4331,1.00117
 L 14.9633,1.27838 L 14.5769,1.63167 L 14.3009,2.05791 L 14.1353,2.5571 L 14.0801,3.12926 L 14.1322,3.70142
 L 14.2885,4.20062 L 14.5488,4.62686 L 14.9134,4.98015 L 15.3665,5.25734 L 15.8925,5.45534 L 16.4914,5.57414
 L 17.1632,5.61374 L 20.8797,5.61374 z
M -18.7086,-2.38881 L -20.8751,-2.38881 L -21.5417,-0.991043 L -20.1752,-0.991043 L -20.1752,5.61374 L -18.7086,5.61374
 z
M -15.0283,-0.991043 L -13.1284,-0.991043 L -12.8879,-0.98114 L -12.666,-0.951416 L -12.463,-0.901871 L -12.2786,-0.83252
 L -12.114,-0.750183 L -11.9702,-0.661575 L -11.8473,-0.566711 L -11.7452,-0.465561 L -11.6588,-0.35405 L -11.5827,-0.227936
 L -11.5171,-0.0872192 L -11.4619,0.0680695 L -11.4171,0.223373 L -11.3828,0.364105 L -11.3588,0.49025 L -11.3453,0.601822
 L -11.338,0.711777 L -11.3327,0.833206 L -11.3296,0.966125 L -11.3286,1.1105 L -11.3286,5.61374 L -9.86206,5.61374
 L -9.86206,1.09563 L -9.87404,0.572006 L -9.90997,0.101547 L -9.96985,-0.315735 L -10.0537,-0.679886 L -10.1823,-1.00552
 L -10.3766,-1.30719 L -10.6365,-1.58488 L -10.962,-1.83861 L -11.4276,-2.07932 L -12.0244,-2.25125 L -12.7525,-2.35442
 L -13.6118,-2.38881 L -16.4949,-2.38881 L -16.4949,5.61374 L -15.0283,5.61374 z
M 1.69568,1.06046 L 1.71547,0.510025 L 1.77484,0.0596924 L 1.87381,-0.290527 L 2.01236,-0.54068 L 2.10814,-0.6418
 L 2.21227,-0.728333 L 2.32474,-0.800262 L 2.44556,-0.857605 L 2.56642,-0.902435 L 2.67892,-0.936829 L 2.78308,-0.960815
 L 2.87888,-0.974365 L 2.97993,-0.981659 L 3.09973,-0.986877 L 3.23828,-0.990005 L 3.3956,-0.991043 L 5.16211,-0.991043
 L 5.16211,-2.38881 L 3.69559,-2.38881 L 3.38776,-2.38672 L 3.11432,-2.38046 L 2.87524,-2.37004 L 2.67055,-2.35544
 L 2.4753,-2.32939 L 2.26439,-2.28458 L 2.03783,-2.22102 L 1.79564,-2.13872 L 1.55504,-2.03557 L 1.33318,-1.90948
 L 1.13007,-1.76047 L 0.945679,-1.58852 L 0.632202,-1.14777 L 0.408279,-0.559036 L 0.273941,0.177628 L 0.229156,1.06226
 L 0.229156,5.61374 L 1.69568,5.61374 z
M 24.435,13.1741 L 26.0183,13.1741 L 26.2188,13.1824 L 26.4036,13.2072 L 26.5729,13.2484 L 26.7265,13.3062
 L 26.8636,13.3748 L 26.9834,13.4487 L 27.0858,13.5277 L 27.1709,13.612 L 27.2429,13.705 L 27.3063,13.8101
 L 27.361,13.9273 L 27.407,14.0567 L 27.4443,14.1861 L 27.473,14.3034 L 27.493,14.4085 L 27.5043,14.5015
 L 27.5104,14.5932 L 27.5147,14.6943 L 27.5173,14.8051 L 27.5182,14.9254 L 27.5182,18.6781 L 28.7403,18.6781
 L 28.7403,14.913 L 28.7303,14.4767 L 28.7004,14.0846 L 28.6505,13.7369 L 28.5806,13.4334 L 28.4734,13.1621
 L 28.3115,12.9107 L 28.0949,12.6793 L 27.8237,12.4678 L 27.4357,12.2672 L 26.9383,12.124 L 26.3316,12.038
 L 25.6155,12.0093 L 24.435,12.0093 L 24.435,8.95653 L 23.2129,8.95653 L 23.2129,18.6781 L 24.435,18.6781
 z
M -40.8457,13.1741 L -39.2624,13.1741 L -39.0619,13.1824 L -38.877,13.2072 L -38.7078,13.2484 L -38.5542,13.3062
 L -38.417,13.3748 L -38.2972,13.4487 L -38.1948,13.5277 L -38.1098,13.612 L -38.0377,13.705 L -37.9743,13.8101
 L -37.9197,13.9273 L -37.8737,14.0567 L -37.8363,14.1861 L -37.8076,14.3034 L -37.7877,14.4085 L -37.7764,14.5015
 L -37.7703,14.5932 L -37.7659,14.6943 L -37.7633,14.8051 L -37.7625,14.9254 L -37.7625,18.6781 L -36.5404,18.6781
 L -36.5404,14.913 L -36.5504,14.4767 L -36.5803,14.0846 L -36.6302,13.7369 L -36.7001,13.4334 L -36.8073,13.1621
 L -36.9691,12.9107 L -37.1857,12.6793 L -37.457,12.4678 L -37.845,12.2672 L -38.3423,12.124 L -38.9491,12.038
 L -39.6652,12.0093 L -40.8457,12.0093 L -40.8457,8.95653 L -42.0678,8.95653 L -42.0678,18.6781 L -40.8457,18.6781
 z
M 13.2998,8.95653 L 12.0499,8.95653 L 12.0499,17.5133 L 10.0361,17.5133 L 9.57042,17.4751 L 9.15944,17.3605
 L 8.80313,17.1695 L 8.50148,16.902 L 8.26147,16.5712 L 8.09004,16.19 L 7.98717,15.7584 L 7.95288,15.2765
 L 7.98891,14.8002 L 8.09695,14.3717 L 8.27705,13.991 L 8.52919,13.658 L 8.83344,13.3875 L 9.16982,13.1943
 L 9.5383,13.0784 L 9.93889,13.0397 L 10.3833,13.071 L 10.7999,13.1647 L 11.1888,13.3209 L 11.5499,13.5396
 L 11.5499,12.2909 L 11.168,12.1089 L 10.7722,11.9789 L 10.3625,11.9009 L 9.93889,11.8749 L 9.28833,11.9361
 L 8.68379,12.1197 L 8.12523,12.4256 L 7.61269,12.8538 L 7.18433,13.3723 L 6.87836,13.9489 L 6.69478,14.5836
 L 6.63359,15.2765 L 6.69261,15.9807 L 6.86966,16.6215 L 7.16475,17.1991 L 7.57788,17.7132 L 8.08568,18.1354
 L 8.66464,18.4369 L 9.31477,18.6178 L 10.0361,18.6781 L 13.2998,18.6781 z
M -23.1454,15.7597 L -22.9796,15.7415 L -22.8155,15.7285 L -22.6532,15.7207 L -22.4926,15.7181 L -22.0148,15.7498
 L -21.5951,15.8449 L -21.2336,16.0034 L -20.9303,16.2253 L -20.6903,16.5054 L -20.5188,16.8385 L -20.416,17.2246
 L -20.3817,17.6636 L -20.3817,18.6781 L -19.1595,18.6781 L -19.1595,17.6784 L -19.2662,16.6413 L -19.5865,15.8351
 L -20.1203,15.2597 L -20.8677,14.9152 L -19.1873,12.0093 L -20.5344,12.0093 L -21.9788,14.6653 L -22.2704,14.634
 L -22.5621,14.6236 L -22.8537,14.634 L -23.1454,14.6653 L -23.1454,8.95653 L -24.3675,8.95653 L -24.3675,18.6781
 L -23.1454,18.6781 z
M -11.5699,18.7621 L -10.9037,18.5915 L -10.3026,18.3073 L -9.76663,17.9093 L -9.32611,17.408 L -9.01146,16.8139
 L -8.82266,16.1268 L -8.75974,15.3469 L -8.82007,14.6009 L -9.00104,13.9321 L -9.30266,13.3406 L -9.72493,12.8263
 L -10.2392,12.4101 L -10.8169,12.1128 L -11.4579,11.9344 L -12.1623,11.8749 L -12.5989,11.9009 L -13.0199,11.9789
 L -13.4252,12.1089 L -13.8149,12.2909 L -13.8149,13.5396 L -13.4808,13.3209 L -13.1171,13.1647 L -12.7239,13.071
 L -12.3011,13.0397 L -11.812,13.0784 L -11.3724,13.1944 L -10.9822,13.3876 L -10.6415,13.6582 L -10.3651,13.9957
 L -10.1676,14.3896 L -10.0491,14.84 L -10.0096,15.3469 L -10.0461,15.8764 L -10.1555,16.3389 L -10.3377,16.7346
 L -10.5929,17.0634 L -10.9124,17.3219 L -11.2873,17.5064 L -11.7179,17.6172 L -12.2039,17.6541 L -12.6705,17.6163
 L -13.0841,17.503 L -13.4448,17.3141 L -13.7525,17.0497 L -13.9986,16.7167 L -14.1743,16.322 L -14.2798,15.8657
 L -14.3149,15.3477 L -14.3149,8.95653 L -15.5648,8.95653 L -15.5648,15.3462 L -15.5084,16.0981 L -15.3392,16.7701
 L -15.0571,17.3622 L -14.6621,17.8744 L -14.1761,18.2876 L -13.6205,18.5828 L -12.9956,18.7599 L -12.3011,18.8189
 z
M 6.02678,17.5133 L 5.84192,17.5107 L 5.67615,17.5029 L 5.52946,17.4899 L 5.40187,17.4717 L 5.28296,17.4452
 L 5.16231,17.4074 L 5.0399,17.3584 L 4.91577,17.298 L 4.79903,17.2207 L 4.69875,17.1209 L 4.61497,16.9985
 L 4.54768,16.8535 L 4.49605,16.6855 L 4.45918,16.4941 L 4.43706,16.2792 L 4.42967,16.0409 L 4.42967,8.95653
 L 3.17978,8.95653 L 3.17978,16.0394 L 3.22014,16.7086 L 3.34123,17.2719 L 3.54305,17.7294 L 3.82558,18.0809
 L 4.20532,18.3422 L 4.69878,18.5288 L 5.30592,18.6408 L 6.02678,18.6781 z
M 0.857559,10.8302 L 1.00859,10.7873 L 1.13531,10.7157 L 1.23772,10.6154 L 1.31673,10.4978 L 1.37317,10.3741
 L 1.40703,10.2444 L 1.41832,10.1085 L 1.40703,9.97272 L 1.37317,9.84299 L 1.31673,9.71931 L 1.23772,9.60173
 L 1.13531,9.50146 L 1.00859,9.42984 L 0.857559,9.38686 L 0.68222,9.37253 L 0.506912,9.38686 L 0.355896,9.42984
 L 0.229156,9.50146 L 0.126709,9.60173 L 0.0477448,9.71931 L -0.00865173,9.84299 L -0.0424957,9.97272 L -0.053772,10.1085
 L -0.0424957,10.2448 L -0.00865173,10.3758 L 0.0477448,10.5017 L 0.126709,10.6223 L 0.229156,10.7195 L 0.355896,10.789
 L 0.506912,10.8306 L 0.68222,10.8445 z
M -33.7833,10.8302 L -33.6323,10.7873 L -33.5056,10.7157 L -33.4032,10.6154 L -33.3242,10.4978 L -33.2677,10.3741
 L -33.2339,10.2444 L -33.2226,10.1085 L -33.2339,9.97272 L -33.2677,9.84299 L -33.3242,9.71931 L -33.4032,9.60173
 L -33.5056,9.50146 L -33.6323,9.42984 L -33.7833,9.38686 L -33.9587,9.37253 L -34.134,9.38686 L -34.285,9.42984
 L -34.4117,9.50146 L -34.5142,9.60173 L -34.5932,9.71931 L -34.6496,9.84299 L -34.6834,9.97272 L -34.6947,10.1085
 L -34.6834,10.2448 L -34.6496,10.3758 L -34.5932,10.5017 L -34.5142,10.6223 L -34.4117,10.7195 L -34.285,10.789
 L -34.134,10.8306 L -33.9587,10.8445 z
M -43.2706,17.5133 L -43.4637,17.5107 L -43.6404,17.5029 L -43.8005,17.4899 L -43.9442,17.4716 L -44.0818,17.4451
 L -44.2237,17.4073 L -44.3699,17.3582 L -44.5205,17.2978 L -44.6642,17.22 L -44.7896,17.1187 L -44.8968,16.994
 L -44.9858,16.8458 L -45.0557,16.6754 L -45.1056,16.4842 L -45.1355,16.2721 L -45.1455,16.0391 L -45.1455,13.1741
 L -43.2706,13.1741 L -43.2706,12.0093 L -45.1455,12.0093 L -45.1455,10.6909 L -47.6314,13.1741 L -46.3954,13.1741
 L -46.3954,16.0373 L -46.3477,16.6958 L -46.2045,17.2535 L -45.9658,17.7104 L -45.6316,18.0666 L -45.1976,18.3342
 L -44.6594,18.5252 L -44.0171,18.6399 L -43.2706,18.6781 z
M 45.6488,18.7701 L 46.2364,18.6238 L 46.7807,18.3798 L 47.2815,18.0383 L 46.4482,17.2189 L 46.1505,17.4093
 L 45.8128,17.5453 L 45.4353,17.6269 L 45.0178,17.6541 L 44.5547,17.6142 L 44.1376,17.4944 L 43.7665,17.2948
 L 43.4414,17.0154 L 43.1771,16.6717 L 42.9883,16.2794 L 42.875,15.8386 L 42.8373,15.3491 L 42.8725,14.8805
 L 42.9779,14.4465 L 43.1537,14.0473 L 43.3998,13.6828 L 43.7075,13.3791 L 44.0682,13.1621 L 44.4818,13.0319
 L 44.9483,12.9885 L 45.187,13.002 L 45.4031,13.0422 L 45.5967,13.1094 L 45.7677,13.2033 L 45.9074,13.3242
 L 46.0072,13.4719 L 46.0671,13.6464 L 46.0871,13.8478 L 46.0645,14.1566 L 45.9968,14.4178 L 45.884,14.6313
 L 45.726,14.7972 L 45.5099,14.9215 L 45.2226,15.0103 L 44.8642,15.0636 L 44.4345,15.0813 L 43.7678,15.0813
 L 43.7678,16.1501 L 44.3372,16.1501 L 45.6678,16.0052 L 46.6183,15.5706 L 47.1886,14.8462 L 47.3787,13.8321
 L 47.2311,13.0123 L 46.7885,12.4128 L 46.0507,12.0337 L 45.0178,11.8749 L 44.2548,11.914 L 43.5769,12.0867
 L 42.9841,12.3931 L 42.4763,12.8332 L 42.0692,13.3792 L 41.7784,14.0033 L 41.6039,14.7055 L 41.5458,15.4858
 L 41.6048,16.188 L 41.7819,16.8225 L 42.077,17.3893 L 42.4901,17.8884 L 43.0022,18.2955 L 43.5942,18.5863
 L 44.2661,18.7608 L 45.0178,18.8189 z
M 35.6968,14.5935 L 35.6516,14.0048 L 35.5162,13.489 L 35.2905,13.0462 L 34.9746,12.6762 L 34.5744,12.3845
 L 34.0961,12.1761 L 33.5397,12.051 L 32.9053,12.0093 L 30.6138,12.0093 L 30.6138,13.1741 L 32.8358,13.1741
 L 33.5527,13.2793 L 34.0649,13.5948 L 34.3721,14.1207 L 34.4746,14.8569 L 34.4746,17.5133 L 32.6414,17.5133
 L 32.0459,17.4559 L 31.6206,17.2836 L 31.3654,16.9965 L 31.2804,16.5945 L 31.3029,16.3714 L 31.3706,16.1752
 L 31.4835,16.006 L 31.6415,15.8637 L 31.8402,15.751 L 32.0755,15.6705 L 32.3471,15.6222 L 32.6553,15.6061
 L 33.0224,15.6313 L 33.3601,15.7069 L 33.6682,15.8329 L 33.9469,16.0093 L 33.9469,14.7613 L 33.5979,14.6633
 L 33.2594,14.5933 L 32.9313,14.5513 L 32.6136,14.5373 L 32.0815,14.5703 L 31.5963,14.6693 L 31.1579,14.8343
 L 30.7665,15.0653 L 30.4445,15.3597 L 30.2145,15.7149 L 30.0765,16.1309 L 30.0305,16.6077 L 30.0739,17.0845
 L 30.2041,17.5005 L 30.4211,17.8557 L 30.7249,18.1501 L 31.1024,18.3811 L 31.5408,18.5461 L 32.0398,18.6451
 L 32.5997,18.6781 L 35.6968,18.6781 z
M 38.0749,14.8837 L 38.0914,14.425 L 38.1409,14.0497 L 38.2234,13.7579 L 38.3388,13.5494 L 38.4187,13.4652
 L 38.5054,13.3931 L 38.5992,13.3331 L 38.6998,13.2853 L 38.8005,13.248 L 38.8943,13.2193 L 38.9811,13.1993
 L 39.0609,13.188 L 39.1451,13.1819 L 39.245,13.1776 L 39.3604,13.175 L 39.4915,13.1741 L 40.9636,13.1741
 L 40.9636,12.0093 L 39.7415,12.0093 L 39.485,12.0111 L 39.2571,12.0163 L 39.0579,12.025 L 38.8873,12.0371
 L 38.7246,12.0588 L 38.5488,12.0962 L 38.3601,12.1491 L 38.1582,12.2177 L 37.9577,12.3037 L 37.7728,12.4088
 L 37.6036,12.5329 L 37.4499,12.6762 L 37.1887,13.0435 L 37.0021,13.5341 L 36.8901,14.148 L 36.8528,14.8852
 L 36.8528,18.6781 L 38.0749,18.6781 z
M 1.40442,12.0093 L -0.40097,12.0093 L -0.956467,13.1741 L 0.182312,13.1741 L 0.182312,18.6781 L 1.40442,18.6781
 z
M -1.96722,12.0093 L -3.18932,12.0093 L -3.18932,17.5133 L -4.77263,17.5133 L -4.97311,17.5051 L -5.15799,17.4803
 L -5.32727,17.4391 L -5.48093,17.3813 L -5.61804,17.3127 L -5.73782,17.2388 L -5.84024,17.1598 L -5.92532,17.0755
 L -5.99734,16.9825 L -6.0607,16.8774 L -6.11539,16.7601 L -6.16142,16.6307 L -6.19873,16.5013 L -6.22737,16.384
 L -6.24733,16.2789 L -6.25862,16.186 L -6.26471,16.0943 L -6.26904,15.9931 L -6.27165,15.8823 L -6.27252,15.762
 L -6.27252,12.0093 L -7.49463,12.0093 L -7.49463,15.7744 L -7.48463,16.2108 L -7.4547,16.6028 L -7.40479,16.9506
 L -7.33492,17.2541 L -7.22772,17.5254 L -7.06584,17.7768 L -6.84927,18.0082 L -6.57802,18.2196 L -6.19003,18.4202
 L -5.69267,18.5635 L -5.08594,18.6495 L -4.36983,18.6781 L -1.96722,18.6781 z
M -30.1695,13.1741 L -28.5863,13.1741 L -28.3858,13.1824 L -28.201,13.2072 L -28.0317,13.2484 L -27.8781,13.3062
 L -27.741,13.3748 L -27.6212,13.4487 L -27.5187,13.5277 L -27.4336,13.612 L -27.3616,13.705 L -27.2982,13.8101
 L -27.2435,13.9273 L -27.1975,14.0567 L -27.1602,14.1861 L -27.1316,14.3034 L -27.1116,14.4085 L -27.1003,14.5015
 L -27.0942,14.5932 L -27.0899,14.6943 L -27.0873,14.8051 L -27.0864,14.9254 L -27.0864,18.6781 L -25.8643,18.6781
 L -25.8643,14.913 L -25.8743,14.4767 L -25.9043,14.0846 L -25.9542,13.7369 L -26.024,13.4334 L -26.1312,13.1621
 L -26.2931,12.9107 L -26.5097,12.6793 L -26.7809,12.4678 L -27.1689,12.2672 L -27.6663,12.124 L -28.273,12.038
 L -28.9891,12.0093 L -31.3917,12.0093 L -31.3917,18.6781 L -30.1695,18.6781 z
M -33.2365,12.0093 L -35.0419,12.0093 L -35.5974,13.1741 L -34.4586,13.1741 L -34.4586,18.6781 L -33.2365,18.6781
 z
M 20.5337,18.5618 L 21.3322,18.2127 L 21.8113,17.6309 L 21.971,16.8164 L 21.9676,16.684 L 21.9571,16.5507
 L 21.9398,16.4165 L 21.9155,16.2815 L 21.8786,16.1452 L 21.8235,16.0071 L 21.7501,15.8674 L 21.6585,15.7258
 L 21.547,15.5908 L 21.4138,15.4705 L 21.2589,15.3651 L 21.0822,15.2743 L 20.8696,15.1857 L 20.6066,15.0867
 L 20.2932,14.9773 L 19.9296,14.8575 L 19.5828,14.7459 L 19.3202,14.6613 L 19.1418,14.6035 L 19.0476,14.5727
 L 18.9904,14.5518 L 18.9227,14.524 L 18.8446,14.4892 L 18.756,14.4475 L 18.6684,14.4027 L 18.5928,14.3588
 L 18.5295,14.3157 L 18.4782,14.2735 L 18.4344,14.2287 L 18.3932,14.1778 L 18.3546,14.1209 L 18.3185,14.0578
 L 18.2882,13.9896 L 18.2665,13.9169 L 18.2535,13.84 L 18.2491,13.7586 L 18.2674,13.6273 L 18.322,13.5116
 L 18.4132,13.4116 L 18.5407,13.3272 L 18.6935,13.2603 L 18.8602,13.2124 L 19.0407,13.1837 L 19.2351,13.1741
 L 21.6933,13.1741 L 21.6933,12.0093 L 19.2351,12.0093 L 18.7872,12.0376 L 18.3741,12.1223 L 17.9956,12.2635
 L 17.6518,12.4611 L 17.3663,12.7117 L 17.1623,13.0119 L 17.0399,13.3616 L 16.9991,13.7608 L 17.023,14.0809
 L 17.0946,14.3742 L 17.214,14.6405 L 17.381,14.8798 L 17.5824,15.0901 L 17.8047,15.2691 L 18.0477,15.4168
 L 18.3115,15.5332 L 18.5858,15.6309 L 18.8601,15.7226 L 19.1344,15.8081 L 19.4087,15.8876 L 19.6726,15.9684
 L 19.9157,16.0578 L 20.1379,16.1559 L 20.3392,16.2627 L 20.5063,16.3808 L 20.6257,16.5128 L 20.6973,16.6587
 L 20.7211,16.8185 L 20.6396,17.1225 L 20.3948,17.3396 L 19.9869,17.4699 L 19.4157,17.5133 L 17.013,17.5133
 L 17.013,18.6781 L 19.4157,18.6781 z
M 15.1167,18.8033 L 15.2764,18.7564 L 15.4222,18.6783 L 15.5542,18.569 L 15.6635,18.4371 L 15.7417,18.2913
 L 15.7885,18.1317 L 15.8042,17.9581 L 15.7885,17.7846 L 15.7417,17.6249 L 15.6635,17.4791 L 15.5542,17.3472
 L 15.4222,17.2379 L 15.2764,17.1598 L 15.1167,17.1129 L 14.9431,17.0973 L 14.7695,17.1129 L 14.6097,17.1598
 L 14.4639,17.2379 L 14.332,17.3472 L 14.2226,17.4791 L 14.1445,17.6249 L 14.0977,17.7846 L 14.0821,17.9581
 L 14.0977,18.1317 L 14.1446,18.2913 L 14.2227,18.4371 L 14.3321,18.569 L 14.464,18.6783 L 14.6098,18.7564
 L 14.7695,18.8033 L 14.9431,18.8189 z
M -17.5168,18.8033 L -17.3571,18.7564 L -17.2113,18.6783 L -17.0793,18.569 L -16.97,18.4371 L -16.8918,18.2913
 L -16.845,18.1317 L -16.8293,17.9581 L -16.845,17.7846 L -16.8918,17.6249 L -16.97,17.4791 L -17.0793,17.3472
 L -17.2113,17.2379 L -17.3571,17.1598 L -17.5168,17.1129 L -17.6904,17.0973 L -17.864,17.1129 L -18.0237,17.1598
 L -18.1696,17.2379 L -18.3015,17.3472 L -18.4109,17.4791 L -18.489,17.6249 L -18.5358,17.7846 L -18.5514,17.9581
 L -18.5358,18.1317 L -18.4889,18.2913 L -18.4108,18.4371 L -18.3014,18.569 L -18.1695,18.6783 L -18.0237,18.7564
 L -17.864,18.8033 L -17.6904,18.8189 z
" stroke="black" fill="lightgray" stroke-width="0.5"/>
</svg>
