<svg>
                <path d="M96.371 35.015 83.51 32.056m56.472 3.288 12.862-2.958M117.921 18.28l-.084-12.862m-14.1 17.233-9.155-9.036m37.082 9.036 9.155-9.036m-22.44 16.18c-6.582.247-11.138 3.44-11.942 12.089m2.352 29.23h18.728m-18.728-4.15h18.728m-18.728-4.25h18.728m-27.232-21.958c0-7.172 5.46-17.366 18.004-17.366s18.003 10.234 18.003 17.366-2.258 9.469-5.428 12.63c-3.17 3.162-3.03 5.242-3.03 9.382 0 0 .007 7.013 0 8.39-.009 1.378-5.612 5.549-9.33 5.549-3.719 0-9.896-4.131-9.896-5.549v-8.39c0-3.706.389-6.248-2.623-9.382-3.012-3.133-5.7-5.458-5.7-12.63z" fill="black"  stroke-width="2.335" stroke-linecap="round"/>
            </svg>
