<?xml version="1.0" encoding="UTF-8" standalone="no"?>
<!-- Created with Inkscape (http://www.inkscape.org/) -->

<svg
   xmlns:dc="http://purl.org/dc/elements/1.1/"
   xmlns:cc="http://creativecommons.org/ns#"
   xmlns:rdf="http://www.w3.org/1999/02/22-rdf-syntax-ns#"
   xmlns:svg="http://www.w3.org/2000/svg"
   xmlns="http://www.w3.org/2000/svg"
   xmlns:sodipodi="http://sodipodi.sourceforge.net/DTD/sodipodi-0.dtd"
   xmlns:inkscape="http://www.inkscape.org/namespaces/inkscape"
   width="63.71154mm"
   height="7.5141664mm"
   viewBox="0 0 63.71154 7.5141664"
   version="1.1"
   id="svg14"
   inkscape:version="0.92.5 (2060ec1f9f, 2020-04-08)"
   sodipodi:docname="logo.svg">
  <defs
     id="defs8" />
  <sodipodi:namedview
     id="base"
     pagecolor="#ffffff"
     bordercolor="#666666"
     borderopacity="1.0"
     inkscape:pageopacity="0.0"
     inkscape:pageshadow="2"
     inkscape:zoom="5.6"
     inkscape:cx="98.987085"
     inkscape:cy="-1.6483025"
     inkscape:document-units="mm"
     inkscape:current-layer="layer1"
     showgrid="false"
     fit-margin-top="0"
     fit-margin-left="0"
     fit-margin-right="0"
     fit-margin-bottom="0"
     inkscape:window-width="2488"
     inkscape:window-height="1376"
     inkscape:window-x="72"
     inkscape:window-y="27"
     inkscape:window-maximized="1" />
  <metadata
     id="metadata11">
    <rdf:RDF>
      <cc:Work
         rdf:about="">
        <dc:format>image/svg+xml</dc:format>
        <dc:type
           rdf:resource="http://purl.org/dc/dcmitype/StillImage" />
        <dc:title></dc:title>
      </cc:Work>
    </rdf:RDF>
  </metadata>
  <g
     inkscape:label="Layer 1"
     inkscape:groupmode="layer"
     id="layer1"
     transform="translate(-123.85524,-76.413093)">
    <g
       aria-label="berlinCreators"
       style="font-style:normal;font-weight:normal;font-size:10.58333302px;line-height:1.25;font-family:sans-serif;letter-spacing:0px;word-spacing:0px;fill:#000000;fill-opacity:1;stroke:none;stroke-width:0.26458332"
       id="text20">
      <path
         d="m 123.85524,76.413093 h 0.9525 v 4.868333 q 0,0.836084 0.42333,1.30175 0.43392,0.455084 1.18533,0.455084 0.78317,0 1.22767,-0.4445 0.4445,-0.455084 0.4445,-1.312334 0,-0.814916 -0.48683,-1.280583 -0.47625,-0.47625 -1.25942,-0.47625 -0.66675,0 -1.15358,0.381 v -0.9525 q 0.58208,-0.3175 1.25941,-0.3175 1.12184,0 1.85209,0.73025 0.74083,0.719667 0.74083,1.915583 0,1.259417 -0.77258,1.957917 -0.762,0.687917 -1.92617,0.687917 -1.11125,0 -1.79917,-0.719667 -0.68791,-0.719667 -0.68791,-1.926167 z"
         style="font-style:normal;font-variant:normal;font-weight:normal;font-stretch:normal;font-size:10.58333302px;font-family:Baumans;-inkscape-font-specification:'Baumans, Normal';font-variant-ligatures:normal;font-variant-caps:normal;font-variant-numeric:normal;font-feature-settings:normal;text-align:start;writing-mode:lr-tb;text-anchor:start;stroke-width:0.26458332"
         id="path74" />
      <path
         d="m 132.6394,78.635593 q 1.79916,0.07408 1.79916,1.49225 0,1.767417 -2.31775,1.767417 h -0.43391 v -0.814917 h 0.508 q 0.70908,0 0.98425,-0.211667 0.27516,-0.22225 0.27516,-0.730249 0,-0.328084 -0.24341,-0.486834 -0.24342,-0.169333 -0.62442,-0.169333 -0.75142,0 -1.18533,0.529167 -0.42334,0.529166 -0.42334,1.269999 0,0.783167 0.45509,1.27 0.46566,0.486834 1.2065,0.486834 0.66675,0 1.09008,-0.328084 l 0.635,0.624417 q -0.73025,0.592667 -1.72508,0.592667 -1.2065,0 -1.92617,-0.709084 -0.71967,-0.709083 -0.71967,-1.830916 0,-1.248833 0.70909,-2.021417 0.70908,-0.772583 1.93675,-0.73025 z"
         style="font-style:normal;font-variant:normal;font-weight:normal;font-stretch:normal;font-size:10.58333302px;font-family:Baumans;-inkscape-font-specification:'Baumans, Normal';font-variant-ligatures:normal;font-variant-caps:normal;font-variant-numeric:normal;font-feature-settings:normal;text-align:start;writing-mode:lr-tb;text-anchor:start;stroke-width:0.26458332"
         id="path76" />
      <path
         d="m 135.33814,83.821426 v -2.88925 q 0,-1.217083 0.45508,-1.682749 0.22225,-0.232834 0.53975,-0.34925 0.3175,-0.116417 0.55033,-0.137584 0.24342,-0.02117 0.65617,-0.02117 h 0.93133 v 0.889 h -1.12183 q -0.21167,0 -0.32808,0.01058 -0.11642,0.01058 -0.27517,0.07408 -0.15875,0.0635 -0.27517,0.201084 -0.20108,0.254 -0.20108,1.015999 v 2.88925 z"
         style="font-style:normal;font-variant:normal;font-weight:normal;font-stretch:normal;font-size:10.58333302px;font-family:Baumans;-inkscape-font-specification:'Baumans, Normal';font-variant-ligatures:normal;font-variant-caps:normal;font-variant-numeric:normal;font-feature-settings:normal;text-align:start;writing-mode:lr-tb;text-anchor:start;stroke-width:0.26458332"
         id="path78" />
      <path
         d="m 139.15871,81.810593 v -5.3975 h 0.9525 v 5.3975 q 0,0.381 0.0847,0.624417 0.0952,0.232833 0.28575,0.338666 0.1905,0.09525 0.37042,0.127 0.17992,0.03175 0.47625,0.03175 v 0.889 q -1.18533,0 -1.68275,-0.455083 -0.48683,-0.455083 -0.48683,-1.55575 z"
         style="font-style:normal;font-variant:normal;font-weight:normal;font-stretch:normal;font-size:10.58333302px;font-family:Baumans;-inkscape-font-specification:'Baumans, Normal';font-variant-ligatures:normal;font-variant-caps:normal;font-variant-numeric:normal;font-feature-settings:normal;text-align:start;writing-mode:lr-tb;text-anchor:start;stroke-width:0.26458332"
         id="path80" />
      <path
         d="m 143.39203,83.821426 h -0.93134 v -4.190999 h -0.86783 l 0.42333,-0.889 h 1.37584 z m -0.97367,-6.138333 q -0.13758,-0.179916 -0.13758,-0.391583 0,-0.211667 0.13758,-0.381 0.13758,-0.179917 0.42333,-0.179917 0.28575,0 0.42334,0.179917 0.13758,0.169333 0.13758,0.381 0,0.211667 -0.13758,0.391583 -0.13759,0.169334 -0.42334,0.169334 -0.28575,0 -0.42333,-0.169334 z"
         style="font-style:normal;font-variant:normal;font-weight:normal;font-stretch:normal;font-size:10.58333302px;font-family:Baumans;-inkscape-font-specification:'Baumans, Normal';font-variant-ligatures:normal;font-variant-caps:normal;font-variant-numeric:normal;font-feature-settings:normal;text-align:start;writing-mode:lr-tb;text-anchor:start;stroke-width:0.26458332"
         id="path82" />
      <path
         d="m 144.86311,78.741427 h 1.83092 q 1.17475,0 1.68275,0.34925 0.45508,0.306916 0.5715,0.740833 0.127,0.423333 0.127,1.121833 v 2.868083 h -0.93134 v -2.8575 q 0,-0.1905 -0.0106,-0.3175 -0.0106,-0.137583 -0.0741,-0.338666 -0.0635,-0.211667 -0.17992,-0.338667 -0.11642,-0.137583 -0.33867,-0.232833 -0.22225,-0.105833 -0.53975,-0.105833 h -1.2065 v 4.190999 h -0.93133 z"
         style="font-style:normal;font-variant:normal;font-weight:normal;font-stretch:normal;font-size:10.58333302px;font-family:Baumans;-inkscape-font-specification:'Baumans, Normal';font-variant-ligatures:normal;font-variant-caps:normal;font-variant-numeric:normal;font-feature-settings:normal;text-align:start;writing-mode:lr-tb;text-anchor:start;stroke-width:0.26458332"
         id="path84" />
      <path
         d="m 150.34526,80.11726 q 0.0106,-1.767417 0.97367,-2.7305 0.97367,-0.973667 2.67758,-0.973667 h 0.68792 v 0.931334 h -0.81492 q -1.17475,0 -1.80975,0.783166 -0.62441,0.772584 -0.64558,1.989667 0.0212,1.217083 0.64558,2.00025 0.635,0.772583 1.80975,0.772583 h 0.81492 v 0.931333 h -0.68792 q -1.70391,0 -2.67758,-0.963083 -0.96308,-0.973667 -0.97367,-2.741083 z"
         style="font-style:normal;font-variant:normal;font-weight:normal;font-stretch:normal;font-size:10.58333302px;font-family:Baumans;-inkscape-font-specification:'Baumans, Normal';font-variant-ligatures:normal;font-variant-caps:normal;font-variant-numeric:normal;font-feature-settings:normal;text-align:start;writing-mode:lr-tb;text-anchor:start;stroke-width:0.26458332"
         id="path86" />
      <path
         d="m 155.74276,83.821426 v -2.88925 q 0,-1.217083 0.45508,-1.682749 0.22225,-0.232834 0.53975,-0.34925 0.3175,-0.116417 0.55034,-0.137584 0.24341,-0.02117 0.65616,-0.02117 h 0.93134 v 0.889 h -1.12184 q -0.21166,0 -0.32808,0.01058 -0.11642,0.01058 -0.27517,0.07408 -0.15875,0.0635 -0.27516,0.201084 -0.20109,0.254 -0.20109,1.015999 v 2.88925 z"
         style="font-style:normal;font-variant:normal;font-weight:normal;font-stretch:normal;font-size:10.58333302px;font-family:Baumans;-inkscape-font-specification:'Baumans, Normal';font-variant-ligatures:normal;font-variant-caps:normal;font-variant-numeric:normal;font-feature-settings:normal;text-align:start;writing-mode:lr-tb;text-anchor:start;stroke-width:0.26458332"
         id="path88" />
      <path
         d="m 162.05041,78.635593 q 1.79917,0.07408 1.79917,1.49225 0,1.767417 -2.31775,1.767417 h -0.43392 v -0.814917 h 0.508 q 0.70909,0 0.98425,-0.211667 0.27517,-0.22225 0.27517,-0.730249 0,-0.328084 -0.24342,-0.486834 -0.24341,-0.169333 -0.62441,-0.169333 -0.75142,0 -1.18534,0.529167 -0.42333,0.529166 -0.42333,1.269999 0,0.783167 0.45508,1.27 0.46567,0.486834 1.2065,0.486834 0.66675,0 1.09009,-0.328084 l 0.635,0.624417 q -0.73025,0.592667 -1.72509,0.592667 -1.2065,0 -1.92616,-0.709084 -0.71967,-0.709083 -0.71967,-1.830916 0,-1.248833 0.70908,-2.021417 0.70909,-0.772583 1.93675,-0.73025 z"
         style="font-style:normal;font-variant:normal;font-weight:normal;font-stretch:normal;font-size:10.58333302px;font-family:Baumans;-inkscape-font-specification:'Baumans, Normal';font-variant-ligatures:normal;font-variant-caps:normal;font-variant-numeric:normal;font-feature-settings:normal;text-align:start;writing-mode:lr-tb;text-anchor:start;stroke-width:0.26458332"
         id="path90" />
      <path
         d="m 167.73365,80.836926 v 0.9525 q -0.40216,-0.306916 -0.98425,-0.306916 -0.49741,0 -0.77258,0.201083 -0.27517,0.1905 -0.27517,0.550333 0,0.6985 1.03717,0.6985 h 1.397 V 80.91101 q 0,-1.280583 -1.24883,-1.280583 h -1.69334 v -0.889 h 1.74625 q 1.02659,0 1.57692,0.508 0.55033,0.508 0.55033,1.460499 v 3.1115 h -2.36008 q -0.89958,0 -1.42875,-0.402166 -0.52917,-0.402167 -0.52917,-1.17475 0,-0.772584 0.56092,-1.17475 0.56092,-0.402167 1.40758,-0.402167 0.47625,0 1.016,0.169333 z"
         style="font-style:normal;font-variant:normal;font-weight:normal;font-stretch:normal;font-size:10.58333302px;font-family:Baumans;-inkscape-font-specification:'Baumans, Normal';font-variant-ligatures:normal;font-variant-caps:normal;font-variant-numeric:normal;font-feature-settings:normal;text-align:start;writing-mode:lr-tb;text-anchor:start;stroke-width:0.26458332"
         id="path92" />
      <path
         d="m 169.70214,79.630427 1.89441,-1.894417 v 1.005417 h 1.42875 v 0.889 h -1.42875 v 2.180166 q 0,0.370417 0.11642,0.613833 0.127,0.243417 0.35983,0.34925 0.23284,0.09525 0.43392,0.127 0.21167,0.03175 0.51858,0.03175 v 0.889 q -1.21708,0 -1.79916,-0.465666 -0.58209,-0.465667 -0.58209,-1.545167 v -2.180166 z"
         style="font-style:normal;font-variant:normal;font-weight:normal;font-stretch:normal;font-size:10.58333302px;font-family:Baumans;-inkscape-font-specification:'Baumans, Normal';font-variant-ligatures:normal;font-variant-caps:normal;font-variant-numeric:normal;font-feature-settings:normal;text-align:start;writing-mode:lr-tb;text-anchor:start;stroke-width:0.26458332"
         id="path94" />
      <path
         d="m 174.61279,79.408177 q 0.74084,-0.772584 1.85209,-0.772584 0.53975,0 1.00541,0.211667 0.47625,0.201083 0.8255,0.560917 0.35984,0.359833 0.56092,0.846666 0.20108,0.47625 0.20108,1.026583 0,0.550334 -0.20108,1.037167 -0.1905,0.47625 -0.53975,0.836083 -0.34925,0.359834 -0.8255,0.5715 -0.47625,0.201084 -1.02658,0.201084 -0.56092,0 -1.03717,-0.201084 -0.46567,-0.211666 -0.81492,-0.5715 -0.34925,-0.359833 -0.55033,-0.836083 -0.1905,-0.486833 -0.1905,-1.037167 0,-1.121833 0.74083,-1.873249 z m 1.85209,0.116416 q -0.74084,0 -1.19592,0.486834 -0.4445,0.486833 -0.4445,1.269999 0,0.783167 0.4445,1.27 0.45508,0.486834 1.19592,0.486834 0.75141,0 1.19591,-0.486834 0.4445,-0.497416 0.4445,-1.27 0,-0.772583 -0.4445,-1.259416 -0.4445,-0.497417 -1.19591,-0.497417 z"
         style="font-style:normal;font-variant:normal;font-weight:normal;font-stretch:normal;font-size:10.58333302px;font-family:Baumans;-inkscape-font-specification:'Baumans, Normal';font-variant-ligatures:normal;font-variant-caps:normal;font-variant-numeric:normal;font-feature-settings:normal;text-align:start;writing-mode:lr-tb;text-anchor:start;stroke-width:0.26458332"
         id="path96" />
      <path
         d="m 180.01029,83.821426 v -2.88925 q 0,-1.217083 0.45509,-1.682749 0.22225,-0.232834 0.53975,-0.34925 0.3175,-0.116417 0.55033,-0.137584 0.24342,-0.02117 0.65617,-0.02117 h 0.93133 v 0.889 h -1.12183 q -0.21167,0 -0.32809,0.01058 -0.11641,0.01058 -0.27516,0.07408 -0.15875,0.0635 -0.27517,0.201084 -0.20108,0.254 -0.20108,1.015999 v 2.88925 z"
         style="font-style:normal;font-variant:normal;font-weight:normal;font-stretch:normal;font-size:10.58333302px;font-family:Baumans;-inkscape-font-specification:'Baumans, Normal';font-variant-ligatures:normal;font-variant-caps:normal;font-variant-numeric:normal;font-feature-settings:normal;text-align:start;writing-mode:lr-tb;text-anchor:start;stroke-width:0.26458332"
         id="path98" />
      <path
         d="m 187.35511,78.741427 v 0.889 h -1.87325 q -0.30691,0 -0.52916,0.116416 -0.22225,0.116417 -0.22225,0.328084 0,0.127 0.0529,0.232833 0.0529,0.09525 0.11642,0.15875 0.0741,0.0635 0.21167,0.137583 0.14816,0.0635 0.22225,0.09525 0.0847,0.02117 0.67733,0.211667 0.59267,0.1905 0.87842,0.3175 0.28575,0.127 0.43391,0.34925 0.15875,0.211666 0.20109,0.423333 0.0423,0.201083 0.0423,0.402167 0,1.418166 -1.94733,1.418166 h -1.83092 v -0.889 h 1.83092 q 0.99483,0 0.99483,-0.529166 0,-0.254 -0.29633,-0.423334 -0.28575,-0.169333 -0.70909,-0.28575 -0.41275,-0.116416 -0.83608,-0.264583 -0.41275,-0.15875 -0.70908,-0.497417 -0.28575,-0.34925 -0.28575,-0.857249 0,-0.645584 0.49741,-0.98425 0.49742,-0.34925 1.2065,-0.34925 z"
         style="font-style:normal;font-variant:normal;font-weight:normal;font-stretch:normal;font-size:10.58333302px;font-family:Baumans;-inkscape-font-specification:'Baumans, Normal';font-variant-ligatures:normal;font-variant-caps:normal;font-variant-numeric:normal;font-feature-settings:normal;text-align:start;writing-mode:lr-tb;text-anchor:start;stroke-width:0.26458332"
         id="path100" />
    </g>
  </g>
</svg>
