<?xml version="1.0" standalone="no"?>
<!DOCTYPE svg PUBLIC "-//W3C//DTD SVG 1.1//EN" "http://www.w3.org/Graphics/SVG/1.1/DTD/svg11.dtd">
<svg width="25mm" height="25mm" viewBox="0 -25 25 25" xmlns="http://www.w3.org/2000/svg" version="1.1">
<title>OpenSCAD Model</title>
<path d="
M 9,-25 L 8,-25 L 8,-24 L 9,-24 z
M 7,-25 L 0,-25 L 0,-18 L 7,-18 z
M 1,-19 L 1,-24 L 6,-24 L 6,-19 z
M 5,-23 L 2,-23 L 2,-20 L 5,-20 z
M 25,-25 L 18,-25 L 18,-18 L 25,-18 z
M 19,-19 L 19,-24 L 24,-24 L 24,-19 z
M 23,-23 L 20,-23 L 20,-20 L 23,-20 z
M 15,-25 L 14,-25 L 14,-24 L 15,-24 z
M 17,-24 L 16,-24 L 16,-23 L 15,-23 L 15,-21 L 16,-21
 L 16,-16 L 17,-16 z
M 14,-23 L 13,-23 L 13,-22 L 12,-22 L 12,-21 L 14,-21
 z
M 15,-21 L 14,-21 L 14,-20 L 15,-20 z
M 10,-21 L 9,-21 L 9,-20 L 10,-20 z
M 3,-10 L 2,-10 L 2,-9 L 3,-9 z
M 15,-19 L 14,-19 L 14,-18 L 15,-18 z
M 14,-18 L 13,-18 L 13,-17 L 14,-17 z
M 7,-17 L 6,-17 L 6,-16 L 7,-16 z
M 1,-14 L 2,-14 L 2,-15 L 4,-15 L 4,-16 L 5,-16
 L 5,-17 L 3,-17 L 3,-16 L 2,-16 L 2,-17 L 0,-17
 L 0,-16 L 1,-16 L 1,-15 L 0,-15 L 0,-13 L 1,-13
 z
M 25,-17 L 24,-17 L 24,-16 L 25,-16 z
M 15,-17 L 14,-17 L 14,-16 L 15,-16 z
M 19,-17 L 18,-17 L 18,-16 L 19,-16 z
M 13,-17 L 12,-17 L 12,-16 L 13,-16 z
M 18,-16 L 17,-16 L 17,-15 L 18,-15 z
M 5,-14 L 4,-14 L 4,-13 L 5,-13 z
M 3,-14 L 2,-14 L 2,-13 L 3,-13 z
M 4,-11 L 5,-11 L 5,-12 L 4,-12 L 4,-13 L 3,-13
 L 3,-10 L 4,-10 z
M 2,-13 L 1,-13 L 1,-12 L 2,-12 z
M 19,-13 L 18,-13 L 18,-12 L 19,-12 z
M 1,-10 L 2,-10 L 2,-11 L 1,-11 L 1,-12 L 0,-12
 L 0,-8 L 1,-8 z
M 12,-9 L 13,-9 L 13,-10 L 11,-10 L 11,-8 L 12,-8
 z
M 14,-9 L 13,-9 L 13,-8 L 14,-8 z
M 7,-7 L 0,-7 L 0,-0 L 7,-0 z
M 1,-1 L 1,-6 L 6,-6 L 6,-1 z
M 5,-5 L 2,-5 L 2,-2 L 5,-2 z
M 25,-4 L 24,-4 L 24,-5 L 25,-5 L 25,-7 L 24,-7
 L 24,-6 L 23,-6 L 23,-3 L 20,-3 L 20,-2 L 19,-2
 L 19,-1 L 21,-1 L 21,-2 L 22,-2 L 22,-1 L 24,-1
 L 24,-0 L 25,-0 z
M 9,-5 L 8,-5 L 8,-3 L 9,-3 z
M 12,-4 L 10,-4 L 10,-2 L 12,-2 z
M 18,-3 L 17,-3 L 17,-2 L 18,-2 z
M 16,-3 L 15,-3 L 15,-2 L 16,-2 z
M 10,-2 L 8,-2 L 8,-0 L 10,-0 z
M 22,-1 L 21,-1 L 21,-0 L 22,-0 z
M 18,-1 L 16,-1 L 16,-0 L 18,-0 z
M 13,-1 L 12,-1 L 12,-0 L 13,-0 z
M 9,-23 L 10,-23 L 10,-22 L 11,-22 L 11,-24 L 13,-24
 L 13,-25 L 10,-25 L 10,-24 L 9,-24 z
M 9,-5 L 14,-5 L 14,-6 L 15,-6 L 15,-7 L 11,-7
 L 11,-8 L 10,-8 L 10,-7 L 9,-7 z
M 25,-9 L 25,-11 L 24,-11 L 24,-12 L 23,-12 L 23,-11
 L 21,-11 L 21,-12 L 20,-12 L 20,-10 L 21,-10 L 21,-9
 L 22,-9 L 22,-7 L 24,-7 L 24,-9 z
M 23,-9 L 23,-10 L 24,-10 L 24,-9 z
M 7,-11 L 5,-11 L 5,-9 L 3,-9 L 3,-8 L 8,-8
 L 8,-7 L 9,-7 L 9,-10 L 7,-10 z
M 7,-9 L 6,-9 L 6,-10 L 7,-10 z
M 24,-16 L 19,-16 L 19,-15 L 18,-15 L 18,-14 L 19,-14
 L 19,-13 L 20,-13 L 20,-15 L 21,-15 L 21,-13 L 24,-13
 L 24,-12 L 25,-12 L 25,-15 L 24,-15 z
M 24,-14 L 22,-14 L 22,-15 L 24,-15 z
M 9,-19 L 8,-19 L 8,-17 L 9,-17 z
M 19,-11 L 18,-11 L 18,-12 L 16,-12 L 16,-13 L 17,-13
 L 17,-14 L 16,-14 L 16,-16 L 15,-16 L 15,-15 L 12,-15
 L 12,-16 L 11,-16 L 11,-19 L 12,-19 L 12,-18 L 13,-18
 L 13,-19 L 14,-19 L 14,-20 L 10,-20 L 10,-17 L 9,-17
 L 9,-15 L 8,-15 L 8,-16 L 7,-16 L 7,-15 L 6,-15
 L 6,-16 L 5,-16 L 5,-14 L 7,-14 L 7,-13 L 6,-13
 L 6,-12 L 7,-12 L 7,-11 L 9,-11 L 9,-10 L 11,-10
 L 11,-11 L 13,-11 L 13,-10 L 16,-10 L 16,-11 L 17,-11
 L 17,-9 L 15,-9 L 15,-8 L 16,-8 L 16,-6 L 15,-6
 L 15,-5 L 14,-5 L 14,-4 L 18,-4 L 18,-3 L 19,-3
 L 19,-4 L 21,-4 L 21,-9 L 20,-9 L 20,-10 L 19,-10
 z
M 17,-5 L 17,-8 L 20,-8 L 20,-5 z
M 19,-7 L 18,-7 L 18,-6 L 19,-6 z
M 10,-11 L 10,-13 L 11,-13 L 11,-14 L 15,-14 L 15,-12
 L 13,-12 L 13,-13 L 12,-13 L 12,-12 L 11,-12 L 11,-11
 z
M 9,-13 L 8,-13 L 8,-14 L 9,-14 z
M 9,-15 L 10,-15 L 10,-14 L 9,-14 z
M 11,-15 L 10,-15 L 10,-16 L 11,-16 z
M 19,-9 L 18,-9 L 18,-10 L 19,-10 z
" stroke="black" fill="lightgray" stroke-width="0.5"/>
</svg>
