<?xml version="1.0" standalone="no"?>
<!DOCTYPE svg PUBLIC "-//W3C//DTD SVG 1.1//EN" "http://www.w3.org/Graphics/SVG/1.1/DTD/svg11.dtd">
<svg width="120mm" height="72mm" viewBox="-60 -36 120 72" xmlns="http://www.w3.org/2000/svg" version="1.1">
<title>OpenSCAD Model</title>
<path d="
M -33.8197,35.0211 L -30,33.3205 L -26.6174,30.8629 L -23.8197,27.7557 L -21.7291,24.1347 L -20.437,20.1582
 L -20.4204,20 L 20.4204,20 L 20.437,20.1582 L 21.7291,24.1347 L 23.8197,27.7557 L 26.6174,30.8629
 L 30,33.3205 L 33.8197,35.0211 L 37.9094,35.8904 L 42.0906,35.8904 L 46.1803,35.0211 L 50,33.3205
 L 53.3826,30.8629 L 56.1803,27.7557 L 58.2709,24.1347 L 59.5629,20.1582 L 60,16 L 59.5629,11.8418
 L 58.2709,7.86526 L 56.1803,4.24429 L 53.3826,1.1371 L 51.8175,-0 L 53.3826,-1.1371 L 56.1803,-4.24429
 L 58.2709,-7.86526 L 59.5629,-11.8418 L 60,-16 L 59.5629,-20.1582 L 58.2709,-24.1347 L 56.1803,-27.7557
 L 53.3826,-30.8629 L 50,-33.3205 L 46.1803,-35.0211 L 42.0906,-35.8904 L 37.9094,-35.8904 L 33.8197,-35.0211
 L 30,-33.3205 L 26.6174,-30.8629 L 23.8197,-27.7557 L 21.7291,-24.1347 L 20.437,-20.1582 L 20.4204,-20
 L -20.4204,-20 L -20.437,-20.1582 L -21.7291,-24.1347 L -23.8197,-27.7557 L -26.6174,-30.8629 L -30,-33.3205
 L -33.8197,-35.0211 L -37.9094,-35.8904 L -42.0906,-35.8904 L -46.1803,-35.0211 L -50,-33.3205 L -53.3826,-30.8629
 L -56.1803,-27.7557 L -58.2709,-24.1347 L -59.5629,-20.1582 L -60,-16 L -59.5629,-11.8418 L -58.2709,-7.86526
 L -56.1803,-4.24429 L -53.3826,-1.1371 L -51.8175,-0 L -53.3826,1.1371 L -56.1803,4.24429 L -58.2709,7.86526
 L -59.5629,11.8418 L -60,16 L -59.5629,20.1582 L -58.2709,24.1347 L -56.1803,27.7557 L -53.3826,30.8629
 L -50,33.3205 L -46.1803,35.0211 L -42.0906,35.8904 L -37.9094,35.8904 z
" stroke="black" fill="lightgray" stroke-width="0.5"/>
</svg>
