<?xml version="1.0" standalone="no"?>
<!DOCTYPE svg PUBLIC "-//W3C//DTD SVG 1.1//EN" "http://www.w3.org/Graphics/SVG/1.1/DTD/svg11.dtd">
<svg width="10mm" height="10mm" viewBox="-5 -5 10 10" xmlns="http://www.w3.org/2000/svg" version="1.1">
<title>OpenSCAD Model</title>
<path d="
M -3.25364,-2.05647 L -3.46503,-1.76552 L -3.76406,-0.845192 L -5,-0.666667 L -5,0.666667 L -3.76406,0.845192
 L -3.46503,1.76552 L -3.25364,2.05647 L -4.00694,3.06413 L -3.06413,4.00694 L -2.05647,3.25364 L -1.76552,3.46503
 L -1.63547,3.50728 L -0.584097,1.2526 L -0.630542,1.23751 L -0.982093,0.982093 L -1.23751,0.630542 L -1.37179,0.21727
 L -1.37179,-0.21727 L -1.23751,-0.630542 L -0.982093,-0.982093 L -0.630542,-1.23751 L -0.21727,-1.37179 L 0.21727,-1.37179
 L 0.630542,-1.23751 L 0.982093,-0.982093 L 1.23751,-0.630542 L 1.37179,-0.21727 L 1.37179,0.21727 L 1.23751,0.630542
 L 0.982093,0.982093 L 0.630542,1.23751 L 0.584097,1.2526 L 1.63547,3.50728 L 1.76552,3.46503 L 2.05647,3.25364
 L 3.06413,4.00694 L 4.00694,3.06413 L 3.25364,2.05647 L 3.46503,1.76552 L 3.76406,0.845192 L 5,0.666667
 L 5,-0.666667 L 3.76406,-0.845192 L 3.46503,-1.76552 L 3.25364,-2.05647 L 4.00694,-3.06413 L 3.06413,-4.00694
 L 2.05647,-3.25364 L 1.76552,-3.46503 L 0.845192,-3.76406 L 0.666667,-5 L -0.666667,-5 L -0.845192,-3.76406
 L -1.76552,-3.46503 L -2.05647,-3.25364 L -3.06413,-4.00694 L -4.00694,-3.06413 z
" stroke="black" fill="lightgray" stroke-width="0.5"/>
</svg>
